<svg width="16" height="24" viewBox="0 0 16 24" fill="none" xmlns="http://www.w3.org/2000/svg">
<path d="M5.65812 13.1294L4.88617 23.1627H8.88625L8.01303 11.8132L5.65812 13.1294ZM5.39934 7.40401C5.40116 7.42928 5.40793 7.45394 5.41928 7.47658C5.46608 7.54989 5.53959 7.60209 5.62422 7.62212C5.86818 7.41302 6.16091 7.26877 6.47535 7.2027C6.7898 7.13663 7.11582 7.15088 7.4233 7.24412C7.61124 7.03619 7.72411 6.7713 7.74388 6.49172C7.74594 6.21762 7.70325 5.94502 7.61749 5.68468C7.30045 4.47812 6.91789 3.28973 6.47153 2.1248C6.34484 1.7696 6.17518 1.43122 5.96634 1.11721C5.85038 0.928769 5.67356 0.785567 5.46513 0.7113C5.36035 0.678384 5.24708 0.685527 5.14727 0.731346C5.04745 0.777165 4.9682 0.858398 4.92485 0.959311C4.90582 1.04031 4.90203 1.12414 4.91368 1.20653L5.39934 7.40401ZM6.06044 11.6728C6.08146 11.6587 6.09948 11.6405 6.11347 11.6194C6.15354 11.5422 6.16198 11.4524 6.13699 11.369C5.8339 11.2623 5.5626 11.0809 5.34816 10.8415C5.13372 10.6022 4.98306 10.3127 4.9101 9.99976C4.63604 9.94108 4.35023 9.97589 4.09828 10.0986C3.85979 10.2338 3.64497 10.407 3.4623 10.6114C2.57604 11.4893 1.73826 12.4148 0.952682 13.3838C0.708415 13.671 0.500193 13.987 0.332654 14.3248C0.227419 14.5195 0.191828 14.7443 0.231775 14.962C0.281218 15.1841 0.49095 15.3328 0.716633 15.3061C0.796379 15.2822 0.870942 15.2435 0.936733 15.192L6.06044 11.6728ZM9.42693 8.96585C9.40411 8.95472 9.37931 8.94821 9.35396 8.94671C9.26708 8.95067 9.18514 8.98828 9.12549 9.05157C9.18449 9.36731 9.163 9.69282 9.063 9.99805C8.963 10.3033 8.7877 10.5784 8.55331 10.798C8.63943 11.0652 8.81248 11.2952 9.04455 11.4519C9.28093 11.591 9.53845 11.6905 9.80692 11.7466C11.0102 12.0752 12.2306 12.3379 13.4625 12.5337C13.8333 12.6015 14.2113 12.6242 14.5877 12.6003C14.8089 12.594 15.0213 12.5124 15.1898 12.369C15.3573 12.2151 15.3812 11.9595 15.2452 11.7773C15.1846 11.7202 15.1139 11.6749 15.0367 11.6437C13.1666 10.7506 11.2966 9.85821 9.42653 8.96585H9.42693Z" fill="#858584"/>
<path d="M7 10.333C7.55229 10.333 8 9.88529 8 9.33301C8 8.78072 7.55229 8.33301 7 8.33301C6.44771 8.33301 6 8.78072 6 9.33301C6 9.88529 6.44771 10.333 7 10.333Z" fill="#858584"/>
</svg>
