<svg width="17" height="17" viewBox="0 0 17 17" fill="none" xmlns="http://www.w3.org/2000/svg">
<path d="M14.8523 13.1473C14.462 12.7735 14.0822 12.3889 13.7132 11.994C13.4032 11.679 13.2165 11.4498 13.2165 11.4498L10.8832 10.3357C11.8173 9.2762 12.3329 7.91233 12.3332 6.49984C12.3332 3.284 9.7165 0.666504 6.49984 0.666504C3.28317 0.666504 0.666504 3.284 0.666504 6.49984C0.666504 9.71567 3.28317 12.3332 6.49984 12.3332C7.969 12.3332 9.30817 11.7832 10.3357 10.884L11.4498 13.2173C11.4498 13.2173 11.679 13.404 11.994 13.714C12.3165 14.0165 12.7407 14.4257 13.1473 14.8532L14.279 16.0132L14.7823 16.5515L16.5498 14.784L16.0115 14.2807C15.6957 13.9707 15.274 13.559 14.8523 13.1473ZM6.49984 10.6665C4.20234 10.6665 2.33317 8.79734 2.33317 6.49984C2.33317 4.20234 4.20234 2.33317 6.49984 2.33317C8.79734 2.33317 10.6665 4.20234 10.6665 6.49984C10.6665 8.79734 8.79734 10.6665 6.49984 10.6665Z" fill="white"/>
</svg>
