<svg width="20" height="20" viewBox="0 0 20 20" fill="none" xmlns="http://www.w3.org/2000/svg">
<path d="M18.125 8.75H17.5V6.25H16.25V8.75H15V6.25H13.75V8.75H13.125C12.9592 8.75 12.8003 8.81585 12.6831 8.93306C12.5658 9.05027 12.5 9.20924 12.5 9.375V11.875C12.5009 12.5951 12.7501 13.2928 13.2055 13.8505C13.6609 14.4083 14.2947 14.7919 15 14.9369V16.875C15 17.0408 14.9342 17.1997 14.8169 17.3169C14.6997 17.4342 14.5408 17.5 14.375 17.5H3.125C2.95924 17.5 2.80027 17.4342 2.68306 17.3169C2.56585 17.1997 2.5 17.0408 2.5 16.875C2.5 16.7092 2.56585 16.5503 2.68306 16.4331C2.80027 16.3158 2.95924 16.25 3.125 16.25H6.25C6.74728 16.25 7.22419 16.0525 7.57583 15.7008C7.92746 15.3492 8.125 14.8723 8.125 14.375C8.125 13.8777 7.92746 13.4008 7.57583 13.0492C7.22419 12.6975 6.74728 12.5 6.25 12.5H3.125C2.95924 12.5 2.80027 12.4342 2.68306 12.3169C2.56585 12.1997 2.5 12.0408 2.5 11.875C2.5 11.7092 2.56585 11.5503 2.68306 11.4331C2.80027 11.3158 2.95924 11.25 3.125 11.25H6.25C6.74713 11.2495 7.22375 11.0518 7.57528 10.7003C7.9268 10.3488 8.1245 9.87213 8.125 9.375V6.875H8.75C9.41279 6.87417 10.0482 6.61052 10.5169 6.14185C10.9855 5.67319 11.2492 5.03779 11.25 4.375V2.5H9.375C8.73509 2.50095 8.12017 2.74853 7.65812 3.19125C7.33435 2.60377 6.859 2.11381 6.28159 1.7724C5.70418 1.43098 5.0458 1.25059 4.375 1.25H2.5V3.125C2.50116 4.11921 2.89662 5.07236 3.59963 5.77537C4.30264 6.47838 5.25579 6.87384 6.25 6.875H6.875V9.375C6.875 9.54076 6.80915 9.69973 6.69194 9.81694C6.57473 9.93415 6.41576 10 6.25 10H3.125C2.62772 10 2.15081 10.1975 1.79917 10.5492C1.44754 10.9008 1.25 11.3777 1.25 11.875C1.25 12.3723 1.44754 12.8492 1.79917 13.2008C2.15081 13.5525 2.62772 13.75 3.125 13.75H6.25C6.41576 13.75 6.57473 13.8158 6.69194 13.9331C6.80915 14.0503 6.875 14.2092 6.875 14.375C6.875 14.5408 6.80915 14.6997 6.69194 14.8169C6.57473 14.9342 6.41576 15 6.25 15H3.125C2.62772 15 2.15081 15.1975 1.79917 15.5492C1.44754 15.9008 1.25 16.3777 1.25 16.875C1.25 17.3723 1.44754 17.8492 1.79917 18.2008C2.15081 18.5525 2.62772 18.75 3.125 18.75H14.375C14.8721 18.7495 15.3488 18.5518 15.7003 18.2003C16.0518 17.8488 16.2495 17.3721 16.25 16.875V14.9369C16.9553 14.7919 17.5891 14.4083 18.0445 13.8505C18.4999 13.2928 18.7491 12.5951 18.75 11.875V9.375C18.75 9.20924 18.6842 9.05027 18.5669 8.93306C18.4497 8.81585 18.2908 8.75 18.125 8.75ZM8.125 5C8.12533 4.66858 8.25713 4.35083 8.49148 4.11648C8.72583 3.88213 9.04358 3.75033 9.375 3.75H10V4.375C9.99967 4.70642 9.86787 5.02417 9.63352 5.25852C9.39917 5.49287 9.08142 5.62467 8.75 5.625H8.125V5ZM6.25 5.625C5.58721 5.62417 4.95181 5.36052 4.48315 4.89185C4.01448 4.42319 3.75083 3.78779 3.75 3.125V2.5H4.375C5.03779 2.50083 5.67319 2.76448 6.14185 3.23315C6.61052 3.70181 6.87417 4.33721 6.875 5V5.625H6.25ZM17.5 11.875C17.5 12.3723 17.3025 12.8492 16.9508 13.2008C16.5992 13.5525 16.1223 13.75 15.625 13.75C15.1277 13.75 14.6508 13.5525 14.2992 13.2008C13.9475 12.8492 13.75 12.3723 13.75 11.875V10H17.5V11.875Z" fill="#4C9C2E"/>
</svg>
