<svg width="40" height="40" viewBox="0 0 40 40" fill="none" xmlns="http://www.w3.org/2000/svg">
<path d="M25.3333 38.6667H24C24 38.9143 24.069 39.157 24.1991 39.3676C24.3293 39.5783 24.5156 39.7485 24.737 39.8592C24.9585 39.97 25.2065 40.0169 25.4531 39.9946C25.6997 39.9724 25.9352 39.8819 26.1333 39.7333L25.3333 38.6667ZM30.6667 34.6667L31.4667 33.6C31.2359 33.4269 30.9552 33.3333 30.6667 33.3333C30.3782 33.3333 30.0975 33.4269 29.8667 33.6L30.6667 34.6667ZM36 38.6667L35.2 39.7333C35.3981 39.8819 35.6336 39.9724 35.8803 39.9946C36.1269 40.0169 36.3748 39.97 36.5963 39.8592C36.8178 39.7485 37.004 39.5783 37.1342 39.3676C37.2644 39.157 37.3333 38.9143 37.3333 38.6667H36ZM30.6667 29.3333C28.8986 29.3333 27.2029 28.631 25.9526 27.3807C24.7024 26.1305 24 24.4348 24 22.6667H21.3333C21.3333 25.142 22.3167 27.516 24.067 29.2663C25.8173 31.0167 28.1913 32 30.6667 32V29.3333ZM37.3333 22.6667C37.3333 24.4348 36.631 26.1305 35.3807 27.3807C34.1305 28.631 32.4348 29.3333 30.6667 29.3333V32C33.142 32 35.516 31.0167 37.2663 29.2663C39.0167 27.516 40 25.142 40 22.6667H37.3333ZM30.6667 16C32.4348 16 34.1305 16.7024 35.3807 17.9526C36.631 19.2029 37.3333 20.8986 37.3333 22.6667H40C40 20.1913 39.0167 17.8173 37.2663 16.067C35.516 14.3167 33.142 13.3333 30.6667 13.3333V16ZM30.6667 13.3333C28.1913 13.3333 25.8173 14.3167 24.067 16.067C22.3167 17.8173 21.3333 20.1913 21.3333 22.6667H24C24 20.8986 24.7024 19.2029 25.9526 17.9526C27.2029 16.7024 28.8986 16 30.6667 16V13.3333ZM24 28V38.6667H26.6667V28H24ZM26.1333 39.7333L31.4667 35.7333L29.8667 33.6L24.5333 37.6L26.1333 39.7333ZM29.8667 35.7333L35.2 39.7333L36.8 37.6L31.4667 33.6L29.8667 35.7333ZM37.3333 38.6667V28H34.6667V38.6667H37.3333ZM40 13.3333V4H37.3333V13.3333H40ZM36 0H4V2.66667H36V0ZM0 4V36H2.66667V4H0ZM4 40H21.3333V37.3333H4V40ZM0 36C0 37.0609 0.421427 38.0783 1.17157 38.8284C1.92172 39.5786 2.93913 40 4 40V37.3333C3.64638 37.3333 3.30724 37.1929 3.05719 36.9428C2.80714 36.6928 2.66667 36.3536 2.66667 36H0ZM4 0C2.93913 0 1.92172 0.421427 1.17157 1.17157C0.421427 1.92172 0 2.93913 0 4H2.66667C2.66667 3.64638 2.80714 3.30724 3.05719 3.05719C3.30724 2.80714 3.64638 2.66667 4 2.66667V0ZM40 4C40 2.93913 39.5786 1.92172 38.8284 1.17157C38.0783 0.421427 37.0609 0 36 0V2.66667C36.3536 2.66667 36.6928 2.80714 36.9428 3.05719C37.1929 3.30724 37.3333 3.64638 37.3333 4H40ZM8 13.3333H21.3333V10.6667H8V13.3333ZM8 21.3333H16V18.6667H8V21.3333Z" fill="#4C9C2E"/>
</svg>
