<svg width="32" height="32" viewBox="0 0 32 32" fill="none" xmlns="http://www.w3.org/2000/svg">
<path fill-rule="evenodd" clip-rule="evenodd" d="M22.6668 2.66675C23.6871 2.66669 24.6689 3.05651 25.4112 3.75646C26.1535 4.4564 26.6003 5.41356 26.6602 6.43208L26.6668 6.66675V22.6667C26.9663 22.6661 27.2573 22.7664 27.4928 22.9513C27.7284 23.1362 27.8949 23.395 27.9654 23.6861C28.0359 23.9771 28.0064 24.2834 27.8816 24.5557C27.7568 24.8279 27.544 25.0502 27.2775 25.1867L27.1348 25.2481L16.4682 29.2481C16.228 29.3383 15.9669 29.3573 15.7162 29.3027L15.5322 29.2494L4.86551 25.2494C4.58535 25.1451 4.34839 24.9496 4.19268 24.6944C4.03697 24.4392 3.97155 24.139 4.00693 23.8422C4.04231 23.5453 4.17643 23.2689 4.38775 23.0575C4.59908 22.846 4.87534 22.7117 5.17218 22.6761L5.33351 22.6667V6.66675C5.33346 5.64647 5.72328 4.66473 6.42323 3.9224C7.12317 3.18007 8.08032 2.73327 9.09885 2.67341L9.33351 2.66675H22.6668ZM22.6668 5.33341H9.33351C8.97989 5.33341 8.64075 5.47389 8.39071 5.72394C8.14066 5.97399 8.00018 6.31313 8.00018 6.66675V23.5761L16.0002 26.5761L24.0002 23.5761V6.66675C24.0002 6.31313 23.8597 5.97399 23.6097 5.72394C23.3596 5.47389 23.0205 5.33341 22.6668 5.33341ZM16.0002 6.66675C16.3538 6.66675 16.6929 6.80722 16.943 7.05727C17.193 7.30732 17.3335 7.64646 17.3335 8.00008V9.33342H20.0002C20.3538 9.33342 20.6929 9.47389 20.943 9.72394C21.193 9.97399 21.3335 10.3131 21.3335 10.6667C21.3335 11.0204 21.193 11.3595 20.943 11.6096C20.6929 11.8596 20.3538 12.0001 20.0002 12.0001H17.3335V13.3334H18.6668C19.5509 13.3334 20.3988 13.6846 21.0239 14.3097C21.649 14.9348 22.0002 15.7827 22.0002 16.6667C22.0002 17.5508 21.649 18.3987 21.0239 19.0238C20.3988 19.6489 19.5509 20.0001 18.6668 20.0001H17.3335V21.3334C17.3335 21.687 17.193 22.0262 16.943 22.2762C16.6929 22.5263 16.3538 22.6667 16.0002 22.6667C15.6466 22.6667 15.3074 22.5263 15.0574 22.2762C14.8073 22.0262 14.6668 21.687 14.6668 21.3334V20.0001H12.0002C11.6466 20.0001 11.3074 19.8596 11.0574 19.6096C10.8073 19.3595 10.6668 19.0204 10.6668 18.6667C10.6668 18.3131 10.8073 17.974 11.0574 17.7239C11.3074 17.4739 11.6466 17.3334 12.0002 17.3334H14.6668V16.0001H13.3335C12.4495 16.0001 11.6016 15.6489 10.9765 15.0238C10.3514 14.3987 10.0002 13.5508 10.0002 12.6667C10.0002 11.7827 10.3514 10.9348 10.9765 10.3097C11.6016 9.6846 12.4495 9.33342 13.3335 9.33342H14.6668V8.00008C14.6668 7.64646 14.8073 7.30732 15.0574 7.05727C15.3074 6.80722 15.6466 6.66675 16.0002 6.66675ZM18.6668 16.0001H17.3335V17.3334H18.6668C18.8334 17.3337 18.9941 17.2716 19.1172 17.1594C19.2403 17.0472 19.317 16.8929 19.332 16.727C19.3471 16.5611 19.2995 16.3955 19.1986 16.263C19.0977 16.1304 18.9508 16.0404 18.7868 16.0107L18.6668 16.0001ZM14.6668 12.0001H13.3335C13.1669 11.9998 13.0062 12.0619 12.8831 12.1741C12.76 12.2863 12.6834 12.4406 12.6683 12.6065C12.6533 12.7724 12.7009 12.938 12.8018 13.0705C12.9027 13.2031 13.0496 13.2931 13.2135 13.3227L13.3335 13.3334H14.6668V12.0001Z" fill="#4C9C2E"/>
</svg>
