<svg width="16" height="24" viewBox="0 0 16 24" fill="none" xmlns="http://www.w3.org/2000/svg">
<path d="M10.9999 10.1399H4.99992C4.86297 10.1288 4.72968 10.0901 4.60804 10.0262C4.4864 9.96229 4.37893 9.87446 4.29207 9.76799C4.20522 9.66153 4.14077 9.53861 4.10259 9.40661C4.06442 9.27462 4.05331 9.13628 4.06992 8.99988C4.07992 8.9995 4.08992 8.9995 4.09992 8.99988C4.13194 8.77548 4.23779 8.56813 4.40077 8.41059C4.56375 8.25305 4.77456 8.15428 4.99992 8.12988H10.8199C11.0612 8.13436 11.293 8.22423 11.4743 8.38352C11.6556 8.54281 11.7745 8.7612 11.8099 8.99988H15.5599C15.5211 7.76615 15.0056 6.59549 14.1217 5.73394C13.2377 4.87239 12.0542 4.38704 10.8199 4.37988H9.85992V0.629883H6.10992V4.37988H4.99992C3.77604 4.40238 2.60765 4.89453 1.73652 5.75449C0.865391 6.61445 0.358209 7.77639 0.319922 8.99988C0.30668 10.0922 0.678409 11.1543 1.36992 11.9999C1.79984 12.559 2.3484 13.0158 2.97609 13.3374C3.60378 13.6591 4.29498 13.8375 4.99992 13.8599H10.9999C11.1421 13.8631 11.282 13.8959 11.4106 13.9564C11.5393 14.0168 11.6539 14.1035 11.7472 14.2108C11.8404 14.3182 11.9101 14.4438 11.9519 14.5797C11.9937 14.7156 12.0067 14.8587 11.9899 14.9999C11.9605 15.2411 11.8433 15.4631 11.6607 15.6236C11.4782 15.784 11.243 15.8717 10.9999 15.8699H5.23992C4.99688 15.8717 4.76168 15.784 4.57911 15.6236C4.39655 15.4631 4.27937 15.2411 4.24992 14.9999H0.469921C0.501228 16.2361 1.01441 17.4111 1.89996 18.2743C2.78551 19.1374 3.97331 19.6203 5.20992 19.6199H6.13992V23.3699H9.85992V19.6199H10.9999C12.2261 19.6047 13.3987 19.115 14.2714 18.2535C15.1441 17.392 15.649 16.2258 15.6799 14.9999C15.7122 13.9097 15.35 12.8445 14.6599 11.9999C14.2268 11.4369 13.6735 10.9778 13.0403 10.656C12.4071 10.3342 11.71 10.1579 10.9999 10.1399Z" fill="#4C9C2E"/>
</svg>
