<svg width="20" height="20" viewBox="0 0 20 20" fill="none" xmlns="http://www.w3.org/2000/svg">
<path d="M5.20833 3.74997C4.82156 3.74997 4.45063 3.90361 4.17714 4.1771C3.90365 4.45059 3.75 4.82152 3.75 5.2083V9.99997H7.70833C8.00928 9.99997 8.30728 10.0592 8.58532 10.1744C8.86335 10.2896 9.11599 10.4584 9.32879 10.6712C9.54159 10.884 9.71039 11.1366 9.82556 11.4146C9.94072 11.6927 10 11.9907 10 12.2916V16.25H14.7917C15.1784 16.25 15.5494 16.0963 15.8229 15.8228C16.0964 15.5493 16.25 15.1784 16.25 14.7916V11.4583C16.25 11.2925 16.3158 11.1336 16.4331 11.0164C16.5503 10.8991 16.7092 10.8333 16.875 10.8333C17.0408 10.8333 17.1997 10.8991 17.3169 11.0164C17.4342 11.1336 17.5 11.2925 17.5 11.4583V14.7916C17.5 15.5099 17.2147 16.1988 16.7067 16.7067C16.1988 17.2146 15.51 17.5 14.7917 17.5H5.20833C4.49004 17.5 3.80116 17.2146 3.29325 16.7067C2.78534 16.1988 2.5 15.5099 2.5 14.7916V5.2083C2.5 4.49 2.78534 3.80113 3.29325 3.29322C3.80116 2.78531 4.49004 2.49997 5.20833 2.49997H8.54167C8.70743 2.49997 8.8664 2.56581 8.98361 2.68302C9.10082 2.80023 9.16667 2.9592 9.16667 3.12497C9.16667 3.29073 9.10082 3.4497 8.98361 3.56691C8.8664 3.68412 8.70743 3.74997 8.54167 3.74997H5.20833ZM12.9667 7.91663H16.875C17.0408 7.91663 17.1997 7.98248 17.3169 8.09969C17.4342 8.2169 17.5 8.37587 17.5 8.54163C17.5 8.70739 17.4342 8.86636 17.3169 8.98357C17.1997 9.10078 17.0408 9.16663 16.875 9.16663H11.4583C11.2926 9.16663 11.1336 9.10078 11.0164 8.98357C10.8992 8.86636 10.8333 8.70739 10.8333 8.54163V3.12497C10.8333 2.9592 10.8992 2.80023 11.0164 2.68302C11.1336 2.56581 11.2926 2.49997 11.4583 2.49997C11.6241 2.49997 11.7831 2.56581 11.9003 2.68302C12.0175 2.80023 12.0833 2.9592 12.0833 3.12497V7.0333L16.4333 2.6833C16.4906 2.62189 16.5596 2.57264 16.6362 2.53848C16.7129 2.50432 16.7956 2.48595 16.8796 2.48447C16.9635 2.48299 17.0468 2.49843 17.1247 2.52986C17.2025 2.5613 17.2732 2.60808 17.3325 2.66743C17.3919 2.72678 17.4387 2.79748 17.4701 2.8753C17.5015 2.95312 17.517 3.03648 17.5155 3.1204C17.514 3.20432 17.4956 3.28708 17.4615 3.36375C17.4273 3.44041 17.3781 3.50941 17.3167 3.56663L12.9667 7.91663Z" fill="#4C9C2E"/>
</svg>
