<svg width="40" height="40" viewBox="0 0 40 40" fill="none" xmlns="http://www.w3.org/2000/svg">
<path d="M20 35C18.2222 35 16.5417 34.7083 14.9583 34.125C13.375 33.5417 11.9444 32.7361 10.6667 31.7083L7.375 35L5 32.625L8.29167 29.3333C7.26389 28.0556 6.45833 26.6178 5.875 25.02C5.29167 23.4233 5 21.75 5 20C5 15.8333 6.46556 12.2917 9.39667 9.375C12.3267 6.45833 15.8611 5 20 5H35V20C35 24.1389 33.5417 27.6739 30.625 30.605C27.7083 33.535 24.1667 35 20 35ZM20 31.6667C23.25 31.6667 26.0067 30.5278 28.27 28.25C30.5344 25.9722 31.6667 23.2222 31.6667 20V8.33333H20C16.7778 8.33333 14.0278 9.465 11.75 11.7283C9.47222 13.9928 8.33333 16.75 8.33333 20C8.33333 23.2222 9.47222 25.9722 11.75 28.25C14.0278 30.5278 16.7778 31.6667 20 31.6667ZM17.7917 28.125L26.4167 20.4167C26.6944 20.1667 26.7778 19.8678 26.6667 19.52C26.5556 19.1733 26.3056 18.9722 25.9167 18.9167L19.1667 18.25L23.2083 12.7083C23.3194 12.5694 23.3678 12.4233 23.3533 12.27C23.34 12.1178 23.2778 11.9722 23.1667 11.8333C23.0278 11.6944 22.8683 11.625 22.6883 11.625C22.5072 11.625 22.3472 11.6944 22.2083 11.8333L13.625 19.5417C13.3472 19.7917 13.2639 20.09 13.375 20.4367C13.4861 20.7844 13.7361 20.9861 14.125 21.0417L20.875 21.7083L16.7917 27.25C16.7083 27.3889 16.6667 27.535 16.6667 27.6883C16.6667 27.8406 16.7361 27.9861 16.875 28.125C17.0139 28.2639 17.1667 28.3333 17.3333 28.3333C17.5 28.3333 17.6528 28.2639 17.7917 28.125Z" fill="#4C9C2E"/>
</svg>
