<svg width="48" height="48" viewBox="0 0 48 48" fill="none" xmlns="http://www.w3.org/2000/svg">
<path d="M21.3162 26.2591L19.7723 46.3256H27.7725L26.0261 23.6266L21.3162 26.2591ZM20.7987 14.8083C20.8023 14.8588 20.8159 14.9081 20.8386 14.9534C20.9322 15.1 21.0792 15.2044 21.2484 15.2445C21.7364 14.8263 22.3218 14.5378 22.9507 14.4056C23.5796 14.2735 24.2316 14.302 24.8466 14.4885C25.2225 14.0726 25.4482 13.5428 25.4878 12.9837C25.4919 12.4355 25.4065 11.8903 25.235 11.3696C24.6009 8.95649 23.8358 6.57971 22.9431 4.24985C22.6897 3.53944 22.3504 2.86269 21.9327 2.23466C21.7008 1.85778 21.3471 1.57138 20.9303 1.42284C20.7207 1.35701 20.4942 1.3713 20.2945 1.46294C20.0949 1.55457 19.9364 1.71704 19.8497 1.91887C19.8116 2.08086 19.8041 2.24853 19.8274 2.41329L20.7987 14.8083V14.8083ZM22.1209 23.3459C22.1629 23.3176 22.199 23.2813 22.2269 23.2391C22.3071 23.0846 22.324 22.905 22.274 22.7383C21.6678 22.5248 21.1252 22.1619 20.6963 21.6833C20.2674 21.2047 19.9661 20.6257 19.8202 19.9998C19.2721 19.8824 18.7005 19.952 18.1966 20.1975C17.7196 20.4679 17.2899 20.8143 16.9246 21.2231C15.1521 22.9788 13.4765 24.8298 11.9054 26.7678C11.4168 27.3423 11.0004 27.9743 10.6653 28.6498C10.4548 29.0392 10.3837 29.4888 10.4635 29.9242C10.5624 30.3684 10.9819 30.6658 11.4333 30.6124C11.5928 30.5646 11.7419 30.4872 11.8735 30.3843L22.1209 23.3459ZM28.8539 17.9319C28.8082 17.9097 28.7586 17.8967 28.7079 17.8937C28.5342 17.9016 28.3703 17.9768 28.251 18.1034C28.369 18.7349 28.326 19.3859 28.126 19.9964C27.926 20.6068 27.5754 21.1571 27.1066 21.5963C27.2789 22.1306 27.625 22.5907 28.0891 22.9041C28.5619 23.1823 29.0769 23.3813 29.6138 23.4934C32.0205 24.1506 34.4612 24.6761 36.925 25.0676C37.6666 25.2032 38.4226 25.2487 39.1754 25.2008C39.6178 25.1883 40.0426 25.0251 40.3796 24.7383C40.7145 24.4305 40.7624 23.9193 40.4905 23.5549C40.3692 23.4407 40.2278 23.3501 40.0734 23.2877C36.3333 21.5014 32.5932 19.7167 28.8531 17.9319H28.8539Z" fill="#4C9C2E"/>
<path d="M24 20.6665C25.1046 20.6665 26 19.7711 26 18.6665C26 17.5619 25.1046 16.6665 24 16.6665C22.8954 16.6665 22 17.5619 22 18.6665C22 19.7711 22.8954 20.6665 24 20.6665Z" fill="#4C9C2E"/>
</svg>
