<svg width="20" height="20" viewBox="0 0 20 20" fill="none" xmlns="http://www.w3.org/2000/svg">
<path d="M10 17.5C9.11111 17.5 8.27083 17.3542 7.47917 17.0625C6.6875 16.7708 5.97222 16.3681 5.33333 15.8542L3.6875 17.5L2.5 16.3125L4.14583 14.6667C3.63194 14.0278 3.22917 13.3089 2.9375 12.51C2.64583 11.7117 2.5 10.875 2.5 10C2.5 7.91667 3.23278 6.14583 4.69833 4.6875C6.16333 3.22917 7.93056 2.5 10 2.5H17.5V10C17.5 12.0694 16.7708 13.8369 15.3125 15.3025C13.8542 16.7675 12.0833 17.5 10 17.5ZM10 15.8333C11.625 15.8333 13.0033 15.2639 14.135 14.125C15.2672 12.9861 15.8333 11.6111 15.8333 10V4.16667H10C8.38889 4.16667 7.01389 4.7325 5.875 5.86417C4.73611 6.99639 4.16667 8.375 4.16667 10C4.16667 11.6111 4.73611 12.9861 5.875 14.125C7.01389 15.2639 8.38889 15.8333 10 15.8333ZM8.89583 14.0625L13.2083 10.2083C13.3472 10.0833 13.3889 9.93389 13.3333 9.76C13.2778 9.58667 13.1528 9.48611 12.9583 9.45833L9.58333 9.125L11.6042 6.35417C11.6597 6.28472 11.6839 6.21167 11.6767 6.135C11.67 6.05889 11.6389 5.98611 11.5833 5.91667C11.5139 5.84722 11.4342 5.8125 11.3442 5.8125C11.2536 5.8125 11.1736 5.84722 11.1042 5.91667L6.8125 9.77083C6.67361 9.89583 6.63194 10.045 6.6875 10.2183C6.74306 10.3922 6.86806 10.4931 7.0625 10.5208L10.4375 10.8542L8.39583 13.625C8.35417 13.6944 8.33333 13.7675 8.33333 13.8442C8.33333 13.9203 8.36806 13.9931 8.4375 14.0625C8.50694 14.1319 8.58333 14.1667 8.66667 14.1667C8.75 14.1667 8.82639 14.1319 8.89583 14.0625Z" fill="white"/>
</svg>
