<svg width="85" height="64" viewBox="0 0 85 64" fill="none" xmlns="http://www.w3.org/2000/svg">
<path d="M8.86153 26.2395C6.01393 29.9709 2.33771 33.8307 1.4918 38.6242C0.843017 42.3006 -0.0179753 49.9056 5.15486 50.6599C14.5661 52.0324 23.9759 36.2613 25.6069 28.5507C26.0268 26.5658 27.4282 19.4657 25.04 18.1721C20.9868 15.9766 15.3707 19.8889 12.9171 22.7945C9.57178 26.756 1.79501 46.4634 11.478 47.5638C20.8633 48.6303 30.491 35.1309 32.8459 27.1989C33.2622 25.7963 33.201 21.5824 31.6248 25.1057C29.5245 29.8006 28.2399 35.5154 27.8746 40.6301C27.5771 44.7941 28.8646 47.5693 32.1481 43.2466C37.2901 36.4775 41.2426 28.2435 44.1839 20.3089C46.3065 14.5828 52.281 -2.47713 48.8935 2.60406C46.0845 6.81757 45.259 15.4813 44.1839 20.3089C42.2469 29.0061 41.8291 37.5062 41.8291 46.3864C41.8291 46.569 41.4904 60.6539 43.5298 56.9831C47.917 49.0862 49.5749 38.4886 51.2048 29.7282C52.1853 24.458 53.0474 19.1768 54.2137 13.9421C54.6235 12.1027 55.0116 8.15405 56.2633 6.48516C57.2837 5.12455 56.471 9.90519 56.2197 11.5873C55.4371 16.8244 54.2129 22.0023 53.2107 27.1989C51.131 37.9825 47.4678 50.6374 48.3703 61.6927C48.5084 63.3856 51.0526 59.4376 51.7717 57.8988C54.2736 52.5453 56.2856 46.9725 58.6181 41.5459C60.3165 37.5944 63.2409 27.9796 67.2088 25.4546C71.2034 22.9126 64.5221 34.5648 62.5864 38.8858C60.7318 43.0259 58.8843 47.1445 57.3099 51.4013C56.7118 53.0182 54.4333 57.0276 56.0452 56.4162C58.0225 55.6662 60.7368 50.7253 61.6707 49.3953C64.9525 44.7212 68.1401 39.9746 71.308 35.2227C74.0097 31.1701 82.0785 18.9979 79.5935 23.187C75.6389 29.8532 70.6292 35.6898 67.2088 42.7233C64.7235 47.8339 65.6767 48.8941 70.3486 45.0781C74.2756 41.8706 78.0284 35.2555 82.7332 33.2168C85.2413 32.13 80.1888 38.0624 78.7213 40.3685" stroke="black" stroke-width="2" stroke-linecap="round"/>
</svg>
