<svg width="20" height="20" viewBox="0 0 20 20" fill="none" xmlns="http://www.w3.org/2000/svg">
<path d="M20 10C20 12.6522 18.9464 15.1957 17.0711 17.0711C15.1957 18.9464 12.6522 20 10 20C7.34784 20 4.8043 18.9464 2.92893 17.0711C1.05357 15.1957 0 12.6522 0 10C0 7.34784 1.05357 4.8043 2.92893 2.92893C4.8043 1.05357 7.34784 0 10 0C12.6522 0 15.1957 1.05357 17.0711 2.92893C18.9464 4.8043 20 7.34784 20 10ZM9 11V14C9 14.2652 9.10536 14.5196 9.29289 14.7071C9.48043 14.8946 9.73478 15 10 15C10.2652 15 10.5196 14.8946 10.7071 14.7071C10.8946 14.5196 11 14.2652 11 14V11C11 10.7348 10.8946 10.4804 10.7071 10.2929C10.5196 10.1054 10.2652 10 10 10C9.73478 10 9.48043 10.1054 9.29289 10.2929C9.10536 10.4804 9 10.7348 9 11ZM10 5.5C9.60218 5.5 9.22064 5.65804 8.93934 5.93934C8.65804 6.22064 8.5 6.60218 8.5 7C8.5 7.39782 8.65804 7.77936 8.93934 8.06066C9.22064 8.34196 9.60218 8.5 10 8.5C10.3978 8.5 10.7794 8.34196 11.0607 8.06066C11.342 7.77936 11.5 7.39782 11.5 7C11.5 6.60218 11.342 6.22064 11.0607 5.93934C10.7794 5.65804 10.3978 5.5 10 5.5Z" fill="#4C9C2E"/>
</svg>
