<svg width="49" height="48" viewBox="0 0 49 48" fill="none" xmlns="http://www.w3.org/2000/svg">
<path fill-rule="evenodd" clip-rule="evenodd" d="M24.5 45C36.098 45 45.5 35.598 45.5 24C45.5 12.402 36.098 3 24.5 3C12.902 3 3.5 12.402 3.5 24C3.5 35.598 12.902 45 24.5 45ZM24.5 48C37.7548 48 48.5 37.2548 48.5 24C48.5 10.7452 37.7548 0 24.5 0C11.2452 0 0.5 10.7452 0.5 24C0.5 37.2548 11.2452 48 24.5 48Z" fill="#4C9C2E"/>
<path fill-rule="evenodd" clip-rule="evenodd" d="M33.8031 32.8H29.9088V21.144L26.5516 28.3954H23.1676L19.8105 21.1709V32.8H15.9431V28.3238H10.5V26.0857H15.9431V23.8476H10.5V21.6095H15.9431V14H20.0791L24.8865 24.0714L29.9088 14H33.8031V21.6095H39.5952V23.8476H33.8031V26.0857H39.5952V28.3238H33.8031V32.8Z" fill="#4C9C2E"/>
</svg>
