<svg width="48" height="48" viewBox="0 0 48 48" fill="none" xmlns="http://www.w3.org/2000/svg">
<path d="M24 0C17.375 0 11.7188 2.34375 7.03125 7.03125C2.34375 11.7188 0 17.375 0 24C0 30.25 2.10938 35.6562 6.32812 40.2188C10.5469 44.7812 15.7812 47.3125 22.0312 47.8125V48H25.9688V47.8125C31.7812 47.3125 36.7656 45 40.9219 40.875C45.0781 36.75 47.375 31.7812 47.8125 25.9688H48V22.0312H47.8125C47.3125 15.7812 44.7812 10.5469 40.2188 6.32812C35.6562 2.10938 30.25 0 24 0ZM25.9688 4.21875C29.8438 4.59375 33.375 6.0625 36.5625 8.625L32.4375 12.8438C30.625 11.4688 28.4688 10.5938 25.9688 10.2188V4.21875ZM22.0312 4.21875V10.2188C19.8438 10.4062 17.6875 11.2812 15.5625 12.8438L11.4375 8.625C14.375 6.0625 17.9062 4.59375 22.0312 4.21875ZM8.625 11.4375L12.8438 15.5625C11.2812 17.6875 10.4062 19.8438 10.2188 22.0312H4.21875C4.40625 18.0938 5.875 14.5625 8.625 11.4375ZM4.21875 25.9688H10.2188C10.5938 28.0312 11.375 30.0312 12.5625 31.9688L7.78125 35.625C5.59375 32.5 4.40625 29.2812 4.21875 25.9688ZM22.0312 43.7812C17.7812 43.4062 13.9062 41.6875 10.4062 38.625L15.1875 34.9688C17.0625 36.4688 19.2812 37.4062 21.8438 37.7812V43.7812H22.0312ZM24 34.0312C21.1875 34.0312 18.8125 33.0625 16.875 31.125C14.9375 29.1875 13.9688 26.8125 13.9688 24C13.9688 21.1875 14.9375 18.8125 16.875 16.875C18.8125 14.9375 21.1875 13.9688 24 13.9688C26.8125 13.9688 29.1875 14.9375 31.125 16.875C33.0625 18.8125 34.0312 21.1875 34.0312 24C34.0312 26.8125 33.0625 29.1875 31.125 31.125C29.1875 33.0625 26.8125 34.0312 24 34.0312ZM25.9688 43.7812V37.7812C29.5938 37.4062 32.4688 35.8125 34.5938 33L39.375 36.5625C35.875 41 31.4062 43.4062 25.9688 43.7812ZM41.8125 33.1875L37.0312 29.625C37.5312 28 37.8438 26.7812 37.9688 25.9688H43.9688C43.5938 28.5312 42.875 30.9375 41.8125 33.1875ZM37.7812 22.0312C37.4062 19.5312 36.5312 17.375 35.1562 15.5625L39.375 11.4375C41.9375 14.625 43.4062 18.1562 43.7812 22.0312H37.7812ZM28.0312 24C28.0312 25.125 27.6406 26.0781 26.8594 26.8594C26.0781 27.6406 25.125 28.0312 24 28.0312C22.875 28.0312 21.9219 27.6406 21.1406 26.8594C20.3594 26.0781 19.9688 25.125 19.9688 24C19.9688 22.875 20.3594 21.9219 21.1406 21.1406C21.9219 20.3594 22.875 19.9688 24 19.9688C25.125 19.9688 26.0781 20.3594 26.8594 21.1406C27.6406 21.9219 28.0312 22.875 28.0312 24Z" fill="#4C9C2E"/>
</svg>
