<svg width="22" height="19" viewBox="0 0 22 19" fill="none" xmlns="http://www.w3.org/2000/svg">
<path fill-rule="evenodd" clip-rule="evenodd" d="M0 2C0 0.89543 0.89543 0 2 0H20C21.1046 0 22 0.89543 22 2V12C22 13.1046 21.1046 14 20 14H2C0.89543 14 0 13.1046 0 12V2ZM20 2H2V12H20V2Z" fill="#858584"/>
<path fill-rule="evenodd" clip-rule="evenodd" d="M8 0C8.55228 0 9 0.447715 9 1V6H13V1C13 0.447715 13.4477 0 14 0C14.5523 0 15 0.447715 15 1V6H20C20.5523 6 21 6.44772 21 7C21 7.55228 20.5523 8 20 8H15V13C15 13.5523 14.5523 14 14 14C13.4477 14 13 13.5523 13 13V8H9V13C9 13.5523 8.55228 14 8 14C7.44772 14 7 13.5523 7 13V8H2C1.44772 8 1 7.55228 1 7C1 6.44772 1.44772 6 2 6H7V1C7 0.447715 7.44772 0 8 0ZM11 12C11.5523 12 12 12.4477 12 13V16.5H14.5C15.0523 16.5 15.5 16.9477 15.5 17.5C15.5 18.0523 15.0523 18.5 14.5 18.5H7.5C6.94772 18.5 6.5 18.0523 6.5 17.5C6.5 16.9477 6.94772 16.5 7.5 16.5H10V13C10 12.4477 10.4477 12 11 12Z" fill="#858584"/>
</svg>
