<svg width="48" height="48" viewBox="0 0 48 48" fill="none" xmlns="http://www.w3.org/2000/svg">
<path d="M24 1.56002C17.8472 1.37362 11.8705 3.62851 7.37416 7.83259C2.87782 12.0367 0.226923 17.8486 0 24C0.226923 30.1514 2.87782 35.9634 7.37416 40.1674C11.8705 44.3715 17.8472 46.6264 24 46.44C30.1528 46.6264 36.1295 44.3715 40.6258 40.1674C45.1222 35.9634 47.7731 30.1514 48 24C47.7731 17.8486 45.1222 12.0367 40.6258 7.83259C36.1295 3.62851 30.1528 1.37362 24 1.56002ZM24 42.69C18.8394 42.885 13.8116 41.0281 10.0166 37.5255C6.22162 34.0229 3.96844 29.1597 3.75 24C3.96844 18.8403 6.22162 13.9772 10.0166 10.4746C13.8116 6.97194 18.8394 5.11501 24 5.31002C29.1606 5.11501 34.1884 6.97194 37.9834 10.4746C41.7784 13.9772 44.0316 18.8403 44.25 24C44.0316 29.1597 41.7784 34.0229 37.9834 37.5255C34.1884 41.0281 29.1606 42.885 24 42.69Z" fill="#4C9C2E"/>
<path d="M26.9999 22.1399H20.9999C20.863 22.1288 20.7297 22.0901 20.608 22.0262C20.4864 21.9623 20.3789 21.8745 20.2921 21.768C20.2052 21.6615 20.1408 21.5386 20.1026 21.4066C20.0644 21.2746 20.0533 21.1363 20.0699 20.9999C20.0799 20.9995 20.0899 20.9995 20.0999 20.9999C20.1319 20.7755 20.2378 20.5681 20.4008 20.4106C20.5637 20.253 20.7746 20.1543 20.9999 20.1299H26.8199C27.0612 20.1344 27.293 20.2242 27.4743 20.3835C27.6556 20.5428 27.7745 20.7612 27.8099 20.9999H31.5599C31.5211 19.7662 31.0056 18.5955 30.1217 17.7339C29.2377 16.8724 28.0542 16.387 26.8199 16.3799H25.8599V12.6299H22.1099V16.3799H20.9999C19.776 16.4024 18.6076 16.8945 17.7365 17.7545C16.8654 18.6144 16.3582 19.7764 16.3199 20.9999C16.3067 22.0922 16.6784 23.1543 17.3699 23.9999C17.7998 24.559 18.3484 25.0158 18.9761 25.3374C19.6038 25.6591 20.295 25.8375 20.9999 25.8599H26.9999C27.1421 25.8631 27.282 25.8959 27.4106 25.9564C27.5393 26.0168 27.6539 26.1035 27.7472 26.2108C27.8404 26.3182 27.9101 26.4438 27.9519 26.5797C27.9937 26.7156 28.0067 26.8587 27.9899 26.9999C27.9605 27.2411 27.8433 27.4631 27.6607 27.6236C27.4782 27.784 27.243 27.8717 26.9999 27.8699H21.2399C20.9969 27.8717 20.7617 27.784 20.5791 27.6236C20.3965 27.4631 20.2794 27.2411 20.2499 26.9999H16.4699C16.5012 28.2361 17.0144 29.4111 17.9 30.2743C18.7855 31.1374 19.9733 31.6203 21.2099 31.6199H22.1399V35.3699H25.8599V31.6199H26.9999C28.2261 31.6047 29.3987 31.115 30.2714 30.2535C31.1441 29.392 31.649 28.2258 31.6799 26.9999C31.7122 25.9097 31.35 24.8445 30.6599 23.9999C30.2268 23.4369 29.6735 22.9778 29.0403 22.656C28.4071 22.3342 27.71 22.1579 26.9999 22.1399V22.1399Z" fill="#4C9C2E"/>
</svg>
