<svg width="48" height="48" viewBox="0 0 48 48" fill="none" xmlns="http://www.w3.org/2000/svg">
<path fill-rule="evenodd" clip-rule="evenodd" d="M2 10C2 7.79086 3.79086 6 6 6H42C44.2091 6 46 7.79086 46 10V30C46 32.2091 44.2091 34 42 34H6C3.79086 34 2 32.2091 2 30V10ZM42 10H6V30H42V10Z" fill="#4C9C2E"/>
<path fill-rule="evenodd" clip-rule="evenodd" d="M18 6C19.1046 6 20 6.89543 20 8V18H28V8C28 6.89543 28.8954 6 30 6C31.1046 6 32 6.89543 32 8V18H42C43.1046 18 44 18.8954 44 20C44 21.1046 43.1046 22 42 22H32V32C32 33.1046 31.1046 34 30 34C28.8954 34 28 33.1046 28 32V22H20V32C20 33.1046 19.1046 34 18 34C16.8954 34 16 33.1046 16 32V22H6C4.89543 22 4 21.1046 4 20C4 18.8954 4.89543 18 6 18H16V8C16 6.89543 16.8954 6 18 6ZM24 30C25.1046 30 26 30.8954 26 32V39H31C32.1046 39 33 39.8954 33 41C33 42.1046 32.1046 43 31 43H17C15.8954 43 15 42.1046 15 41C15 39.8954 15.8954 39 17 39H22V32C22 30.8954 22.8954 30 24 30Z" fill="#4C9C2E"/>
</svg>
