<svg width="45" height="34" viewBox="0 0 45 34" fill="none" xmlns="http://www.w3.org/2000/svg">
<path d="M40.8625 12.4625C38.7625 11.3188 35.9688 10.5125 32.875 10.1188V8.75C32.875 6.48125 31.075 4.41875 27.8125 2.95625C24.85 1.60625 20.9125 0.875 16.75 0.875C12.5875 0.875 8.65 1.60625 5.6875 2.95625C2.425 4.41875 0.625 6.48125 0.625 8.75V16.25C0.625 18.5187 2.425 20.5812 5.6875 22.0437C7.89739 22.9931 10.2349 23.6122 12.625 23.8812V25.25C12.625 27.5187 14.425 29.5812 17.6875 31.0437C20.65 32.3937 24.5875 33.125 28.75 33.125C32.9125 33.125 36.85 32.3937 39.8125 31.0437C43.075 29.5812 44.875 27.5187 44.875 25.25V17.75C44.875 15.7437 43.45 13.8688 40.8625 12.4625ZM39.775 14.4313C41.6125 15.4438 42.625 16.6062 42.625 17.75C42.625 20.4125 36.925 23.375 28.75 23.375C27.4214 23.3709 26.0942 23.2895 24.775 23.1312C25.8161 22.8544 26.8322 22.4906 27.8125 22.0437C31.075 20.5812 32.875 18.5187 32.875 16.25V12.3875C35.575 12.7625 37.9938 13.475 39.775 14.4313ZM13.8812 21.7438H13.825C13.15 21.6875 12.4937 21.5938 11.875 21.5V16.2687C13.4894 16.5041 15.1186 16.6231 16.75 16.625C18.3814 16.6231 20.0106 16.5041 21.625 16.2687V21.5C20.0127 21.7554 18.3824 21.8808 16.75 21.875C15.7921 21.8798 14.8347 21.836 13.8812 21.7438ZM30.625 12.8563V16.25C30.625 18.0312 28.0562 19.9625 23.875 21.0312V15.8375C25.2291 15.5452 26.5489 15.1116 27.8125 14.5438C28.8242 14.1154 29.771 13.5474 30.625 12.8563ZM16.75 3.125C24.925 3.125 30.625 6.0875 30.625 8.75C30.625 11.4125 24.925 14.375 16.75 14.375C8.575 14.375 2.875 11.4125 2.875 8.75C2.875 6.0875 8.575 3.125 16.75 3.125ZM2.875 16.25V12.8563C3.72904 13.5474 4.67575 14.1154 5.6875 14.5438C6.95113 15.1116 8.27085 15.5452 9.625 15.8375V21.0312C5.44375 19.9625 2.875 18.0312 2.875 16.25ZM14.875 25.25V24.0687C15.4937 24.1062 16.1125 24.125 16.75 24.125C17.3875 24.125 18.2125 24.1063 18.9437 24.05C19.8157 24.3817 20.7122 24.645 21.625 24.8375V30.0312C17.4438 28.9625 14.875 27.0312 14.875 25.25ZM23.875 30.5V25.2688C25.4895 25.5034 27.1186 25.6224 28.75 25.625C30.3814 25.6231 32.0106 25.5041 33.625 25.2688V30.5C30.3942 31 27.1058 31 23.875 30.5ZM35.875 30.0312V24.8375C37.2291 24.5452 38.5489 24.1116 39.8125 23.5437C40.8242 23.1154 41.771 22.5474 42.625 21.8562V25.25C42.625 27.0312 40.0563 28.9625 35.875 30.0312Z" fill="#4C9C2E"/>
</svg>
